<?xml version="1.0" encoding="UTF-8" standalone="no"?>
<!-- Generated by IcoMoon.io -->

<svg
   xmlns:dc="http://purl.org/dc/elements/1.1/"
   xmlns:cc="http://creativecommons.org/ns#"
   xmlns:rdf="http://www.w3.org/1999/02/22-rdf-syntax-ns#"
   xmlns:svg="http://www.w3.org/2000/svg"
   xmlns="http://www.w3.org/2000/svg"
   xmlns:sodipodi="http://sodipodi.sourceforge.net/DTD/sodipodi-0.dtd"
   xmlns:inkscape="http://www.inkscape.org/namespaces/inkscape"
   version="1.1"
   width="16"
   height="16"
   viewBox="0 0 16 16"
   id="svg4"
   sodipodi:docname="135-search.svg"
   inkscape:version="0.92.2 5c3e80d, 2017-08-06">
  <metadata
     id="metadata10">
    <rdf:RDF>
      <cc:Work
         rdf:about="">
        <dc:format>image/svg+xml</dc:format>
        <dc:type
           rdf:resource="http://purl.org/dc/dcmitype/StillImage" />
        <dc:title></dc:title>
      </cc:Work>
    </rdf:RDF>
  </metadata>
  <defs
     id="defs8" />
  <sodipodi:namedview
     pagecolor="#ffffff"
     bordercolor="#666666"
     borderopacity="1"
     objecttolerance="10"
     gridtolerance="10"
     guidetolerance="10"
     inkscape:pageopacity="0"
     inkscape:pageshadow="2"
     inkscape:window-width="1920"
     inkscape:window-height="1031"
     id="namedview6"
     showgrid="false"
     inkscape:zoom="41.7193"
     inkscape:cx="6.7759105"
     inkscape:cy="6.9958717"
     inkscape:window-x="0"
     inkscape:window-y="25"
     inkscape:window-maximized="1"
     inkscape:current-layer="svg4" />
  <path
     d="m 15.551939,13.59203 -3.79,-3.223 c -0.392,-0.353 -0.811,-0.514 -1.149,-0.499 0.895,-1.048 1.435,-2.4069997 1.435,-3.8929997 0,-3.314 -2.686,-6 -5.9999996,-6 -3.314,0 -5.99999993,2.686 -5.99999993,6 0,3.3139997 2.68599993,5.9999997 5.99999993,5.9999997 1.486,0 2.8449996,-0.54 3.8929996,-1.435 -0.016,0.338 0.146,0.757 0.499,1.149 l 3.223,3.79 c 0.552,0.613 1.453,0.665 2.003,0.115 0.55,-0.55 0.498,-1.452 -0.115,-2.003 z m -9.5039996,-3.616 c -2.209,0 -4,-1.791 -4,-3.9999997 0,-2.209 1.791,-4 4,-4 2.2089996,0 3.9999996,1.791 3.9999996,4 0,2.2089997 -1.791,3.9999997 -3.9999996,3.9999997 z"
     id="path2"
     style="fill:#000000;fill-opacity:0.990566"
     inkscape:connector-curvature="0" />
</svg>
